<svg xmlns="http://www.w3.org/2000/svg" width="900" height="540" viewBox="0 0 900 540">
  <defs>
    <linearGradient id="bg3" x1="0" y1="0" x2="0" y2="1">
      <stop offset="0%" stop-color="#050b0f" />
      <stop offset="100%" stop-color="#182d2b" />
    </linearGradient>
    <linearGradient id="glow3" x1="0" y1="0" x2="1" y2="1">
      <stop offset="0%" stop-color="#ffb347" stop-opacity="0.85" />
      <stop offset="100%" stop-color="#ff4fd8" stop-opacity="0.85" />
    </linearGradient>
  </defs>
  <rect width="100%" height="100%" fill="url(#bg3)" />
  <g opacity="0.45" stroke="#133634" stroke-width="1">
    <path d="M0 54H900M0 108H900M0 162H900M0 216H900M0 270H900M0 324H900M0 378H900M0 432H900M0 486H900" />
    <path d="M54 0V540M108 0V540M162 0V540M216 0V540M270 0V540M324 0V540M378 0V540M432 0V540M486 0V540M540 0V540M594 0V540M648 0V540M702 0V540M756 0V540M810 0V540M864 0V540" />
  </g>
  <rect x="38" y="38" width="824" height="464" fill="none" stroke="#ffb347" stroke-width="4" />
  <rect x="70" y="70" width="760" height="400" fill="none" stroke="url(#glow3)" stroke-width="2" />
  <g fill="#e8ff8a" font-family="monospace" font-size="28" letter-spacing="4">
    <text x="50%" y="50%" dominant-baseline="middle" text-anchor="middle">SCREENSHOT 03</text>
  </g>
</svg>
