<svg xmlns="http://www.w3.org/2000/svg" width="900" height="540" viewBox="0 0 900 540">
  <defs>
    <linearGradient id="bg2" x1="0" y1="0" x2="0" y2="1">
      <stop offset="0%" stop-color="#0b0714" />
      <stop offset="100%" stop-color="#1a0f2d" />
    </linearGradient>
    <linearGradient id="glow2" x1="0" y1="0" x2="1" y2="1">
      <stop offset="0%" stop-color="#6dff86" stop-opacity="0.85" />
      <stop offset="100%" stop-color="#47f5ff" stop-opacity="0.85" />
    </linearGradient>
  </defs>
  <rect width="100%" height="100%" fill="url(#bg2)" />
  <g opacity="0.45" stroke="#2a2242" stroke-width="1">
    <path d="M0 72H900M0 144H900M0 216H900M0 288H900M0 360H900M0 432H900M0 504H900" />
    <path d="M72 0V540M144 0V540M216 0V540M288 0V540M360 0V540M432 0V540M504 0V540M576 0V540M648 0V540M720 0V540M792 0V540M864 0V540" />
  </g>
  <rect x="44" y="44" width="812" height="452" fill="none" stroke="#47f5ff" stroke-width="4" />
  <rect x="76" y="76" width="748" height="388" fill="none" stroke="url(#glow2)" stroke-width="2" />
  <g fill="#e8ff8a" font-family="monospace" font-size="28" letter-spacing="4">
    <text x="50%" y="50%" dominant-baseline="middle" text-anchor="middle">SCREENSHOT 02</text>
  </g>
</svg>
